<svg width="18" height="16" viewBox="0 0 18 16" fill="none" xmlns="http://www.w3.org/2000/svg">
<path d="M5.43699 9.22995C5.10293 8.48545 4.44432 7.93664 3.65168 7.74251V1.06474C3.65168 0.706719 3.36169 0.416748 3.00369 0.416748C2.6459 0.416748 2.3557 0.706731 2.3557 1.06474V7.73962C2.20065 7.77917 2.04876 7.83138 1.90208 7.89512C1.2247 8.20183 0.705738 8.77727 0.470474 9.48289C0.235412 10.1883 0.305025 10.9599 0.662816 11.612C1.02061 12.2639 1.63425 12.7371 2.35572 12.9175V15.3217C2.35572 15.6797 2.64593 15.9697 3.00371 15.9697C3.36173 15.9697 3.6517 15.6797 3.6517 15.3217V12.9207C4.50382 12.7125 5.19793 12.0961 5.50505 11.2748C5.7573 10.6117 5.73288 9.87508 5.43702 9.23021L5.43699 9.22995ZM4.29307 10.8177L4.2933 10.8175C4.13101 11.2478 3.76486 11.569 3.31689 11.6732C2.86891 11.7776 2.39857 11.6513 2.06292 11.3369C1.72727 11.0223 1.57087 10.561 1.64591 10.1073C1.72095 9.65348 2.01771 9.26719 2.43653 9.07758C2.61327 8.99598 2.80584 8.95395 3.00045 8.9544C3.26557 8.9544 3.52527 9.03079 3.74813 9.17432C3.97122 9.31807 4.14796 9.52284 4.25758 9.76445C4.41218 10.0956 4.42732 10.475 4.29962 10.8175L4.29307 10.8177Z" fill="#231F20"/>
<path d="M17.4259 9.23007C17.0917 8.48557 16.433 7.93676 15.6404 7.74263V1.06486C15.6404 0.706841 15.3504 0.41687 14.9924 0.41687C14.6346 0.41687 14.3444 0.706853 14.3444 1.06486V7.73974C14.1894 7.77929 14.0377 7.8315 13.8908 7.89524C13.2134 8.20195 12.6945 8.7774 12.4594 9.48301C12.2241 10.1884 12.2937 10.96 12.6515 11.6121C13.0096 12.264 13.623 12.7373 14.3444 12.9176V15.3218C14.3444 15.6798 14.6347 15.9698 14.9924 15.9698C15.3504 15.9698 15.6404 15.6798 15.6404 15.3218V12.9208C16.4927 12.7126 17.1866 12.0963 17.494 11.2749C17.7462 10.6118 17.7216 9.8752 17.426 9.23033L17.4259 9.23007ZM16.282 10.8176C16.12 11.248 15.7536 11.5691 15.3056 11.6733C14.8576 11.7778 14.3873 11.6514 14.0516 11.337C13.716 11.0224 13.5596 10.5611 13.6346 10.1075C13.7097 9.65361 14.0064 9.26731 14.4252 9.0777C14.6022 8.99656 14.7946 8.95452 14.9892 8.95452C15.2543 8.95452 15.514 9.03091 15.7371 9.17444C15.9599 9.31819 16.1367 9.52296 16.2463 9.76457C16.3989 10.0966 16.4117 10.4761 16.282 10.8176Z" fill="#231F20"/>
<path d="M9.94032 3.65683C9.84313 3.62111 9.74594 3.59196 9.64536 3.56619L9.64559 1.06462C9.64559 0.706598 9.35538 0.416626 8.9976 0.416626C8.63958 0.416626 8.34938 0.70661 8.34938 1.06462V3.57568C7.58179 3.76961 6.93947 4.29328 6.59479 5.00595C6.25034 5.7188 6.23904 6.54767 6.56405 7.26955C6.85426 7.91644 7.39107 8.42023 8.05468 8.66927C8.15187 8.70498 8.25222 8.73414 8.34964 8.7599L8.34941 15.3214C8.34941 15.6794 8.63962 15.9694 8.99763 15.9694C9.35542 15.9694 9.64562 15.6794 9.64562 15.3214V8.75643C9.80135 8.71936 9.95346 8.66738 10.0992 8.60093C10.7502 8.31185 11.2585 7.77461 11.5114 7.10874C11.7643 6.44265 11.7406 5.70335 11.4454 5.05513C11.1504 4.40668 10.6087 3.90334 9.94032 3.65651L9.94032 3.65683ZM10.2968 6.65387C10.1679 6.99584 9.90846 7.27246 9.57575 7.42302C9.24282 7.57355 8.86377 7.58553 8.52204 7.45647C8.18007 7.32741 7.90362 7.06794 7.75335 6.735C7.56078 6.30895 7.59762 5.81442 7.85099 5.4216C8.10436 5.02855 8.53966 4.7912 9.00729 4.7908C9.17319 4.79102 9.33773 4.82063 9.49323 4.87827C9.83181 5.00891 10.1046 5.26906 10.2515 5.60084C10.407 5.93174 10.4233 6.31098 10.2968 6.65387Z" fill="#231F20"/>
</svg>
