<svg width="25" height="24" viewBox="0 0 25 24" fill="none" xmlns="http://www.w3.org/2000/svg">
    <path
        d="M16.4239 4.17C12.9128 2.19 8.59144 2.82 5.80056 5.52V3.9C5.80056 3.36 5.44045 3 4.90028 3C4.36011 3 4 3.36 4 3.9V7.95C4 8.49 4.36011 8.85 4.90028 8.85H8.95155C9.49172 8.85 9.85183 8.49 9.85183 7.95C9.85183 7.41 9.49172 7.05 8.95155 7.05H6.79087C8.05127 5.61 9.94186 4.8 12.0125 4.8C15.9737 4.8 19.2148 8.04 19.2148 12C19.2148 15.96 15.9737 19.2 12.0125 19.2C11.4723 19.2 11.1122 19.56 11.1122 20.1C11.1122 20.64 11.4723 21 12.0125 21C15.2535 21 18.2245 19.29 19.845 16.5C22.2757 12.18 20.7452 6.69 16.4239 4.17ZM11.9225 8.4C11.3823 8.4 11.0222 8.76 11.0222 9.3V12C11.0222 12.54 11.3823 12.9 11.9225 12.9H13.723C14.2632 12.9 14.6233 12.54 14.6233 12C14.6233 11.46 14.2632 11.1 13.723 11.1H12.8228V9.3C12.8228 8.76 12.4626 8.4 11.9225 8.4Z"
        fill="white" />
</svg>
