<svg width="20" height="20" viewBox="0 0 20 20" fill="none" xmlns="http://www.w3.org/2000/svg">
<path fill-rule="evenodd" clip-rule="evenodd" d="M7.37357 1.14729C8.78786 -0.382429 11.2121 -0.382429 12.6264 1.14729L19.055 8.10041C19.6629 8.75743 20 9.61874 20 10.5121V17.8645C20 19.044 19.0407 20 17.8571 20H2.14286C0.959286 20 0 19.044 0 17.8645V10.5121C0 9.61874 0.337141 8.75743 0.944999 8.10041L7.37357 1.14729ZM7.85714 18.5763H12.1429V12.1699H7.85714V18.5763ZM6.42857 18.5763H2.14286C1.74857 18.5763 1.42857 18.2575 1.42857 17.8645V10.5121C1.42857 9.97607 1.63072 9.45927 1.99572 9.06492L8.42429 2.1118C9.27286 1.19425 10.7271 1.19425 11.5757 2.1118L18.0043 9.06492C18.3693 9.45927 18.5714 9.97607 18.5714 10.5121V17.8645C18.5714 18.2575 18.2514 18.5763 17.8571 18.5763H13.5714V12.1699C13.5714 11.3833 12.9321 10.7463 12.1429 10.7463H7.85714C7.06786 10.7463 6.42857 11.3833 6.42857 12.1699V18.5763Z" fill="white"/>
</svg>
