<svg width="20" height="20" viewBox="0 0 20 20" fill="none" xmlns="http://www.w3.org/2000/svg">
    <path
        d="M2.6011 1.42279C2.27566 1.09735 1.74803 1.09735 1.42259 1.42279C1.09715 1.74823 1.09715 2.27586 1.42259 2.6013L3.79611 4.97482C3.36508 5.34101 2.97308 5.72162 2.62122 6.09694C1.79736 6.97572 1.16839 7.85132 0.74528 8.50645C0.533208 8.83482 0.371493 9.10992 0.261643 9.30521C0.206686 9.40292 0.164617 9.48081 0.135628 9.53559C0.121131 9.56298 0.109896 9.58462 0.101948 9.60008L0.0924917 9.61859L0.0896158 9.62428L0.0886417 9.62622L0.0882708 9.62696C0.0881177 9.62726 0.0879773 9.62755 0.833333 10.0002L0.0879773 9.62755C-0.0293258 9.86215 -0.0293258 10.1383 0.0879773 10.3729L0.833333 10.0002C0.0879773 10.3729 0.0881177 10.3732 0.0882708 10.3735L0.0886417 10.3742L0.0896158 10.3762L0.0924917 10.3819L0.101948 10.4004C0.109896 10.4158 0.121131 10.4375 0.135628 10.4649C0.164617 10.5196 0.206686 10.5975 0.261643 10.6952C0.371493 10.8905 0.533208 11.1656 0.74528 11.494C1.16839 12.1491 1.79736 13.0247 2.62122 13.9035C4.25373 15.6449 6.75041 17.5002 10 17.5002C11.8736 17.5002 13.4969 16.8834 14.8486 16.0273L17.7441 18.9228C18.0695 19.2482 18.5972 19.2482 18.9226 18.9228C19.248 18.5974 19.248 18.0697 18.9226 17.7443L16.2039 15.0256C16.2039 15.0256 16.2039 15.0256 16.2039 15.0256L15.0213 13.8429C15.0213 13.8429 15.0213 13.8429 15.0213 13.8429L12.6803 11.502C12.6803 11.502 12.6803 11.502 12.6803 11.502L12.0282 10.8499C12.0282 10.8499 12.0282 10.8499 12.0282 10.8499L6.36471 5.1864C6.36473 5.1864 6.36474 5.18639 6.36475 5.18638L5.15143 3.97306C5.15141 3.97307 5.1514 3.97307 5.15139 3.97308L2.6011 1.42279ZM4.97877 6.15749L7.12831 8.30702C6.83525 8.80324 6.66667 9.38241 6.66667 10.0002C6.66667 11.8412 8.15905 13.3336 10 13.3336C10.618 13.3336 11.1971 13.165 11.6932 12.8719L13.6353 14.814C12.5691 15.4285 11.3527 15.8336 10 15.8336C7.41626 15.8336 5.3296 14.3556 3.83711 12.7636C3.09847 11.9757 2.52953 11.1847 2.14535 10.5898C1.99577 10.3582 1.87503 10.1576 1.78395 10.0002C1.87503 9.84284 1.99577 9.64226 2.14535 9.41066C2.52953 8.8158 3.09847 8.02473 3.83711 7.23684C4.18567 6.86505 4.56664 6.49947 4.97877 6.15749ZM8.38966 9.56837L10.4318 11.6106C10.2941 11.6473 10.1494 11.6669 10 11.6669C9.07952 11.6669 8.33333 10.9207 8.33333 10.0002C8.33333 9.85076 8.35289 9.70603 8.38966 9.56837ZM17.8547 10.5898C17.4819 11.1669 16.9353 11.9287 16.2285 12.6931L17.4078 13.8724C18.2174 13.0041 18.8366 12.1414 19.2547 11.494C19.4668 11.1656 19.6285 10.8905 19.7384 10.6952C19.7933 10.5975 19.8354 10.5196 19.8644 10.4649C19.8789 10.4375 19.8901 10.4158 19.8981 10.4004L19.9075 10.3819L19.9104 10.3762L19.9114 10.3742L19.9117 10.3735C19.9119 10.3732 19.912 10.3729 19.1667 10.0002L19.912 10.3729C20.0293 10.1383 20.0293 9.86215 19.912 9.62755L19.1667 10.0002C19.912 9.62755 19.9119 9.62726 19.9117 9.62696L19.9114 9.62622L19.9104 9.62428L19.9075 9.61859L19.8981 9.60008C19.8901 9.58462 19.8789 9.56298 19.8644 9.53559C19.8354 9.48081 19.7933 9.40292 19.7384 9.30521C19.6285 9.10992 19.4668 8.83482 19.2547 8.50645C18.8316 7.85132 18.2026 6.97572 17.3788 6.09694C15.7463 4.35559 13.2496 2.50022 10 2.50022C8.7948 2.50022 7.69316 2.75543 6.70076 3.16538L8.00312 4.46773C8.63063 4.27633 9.29691 4.16689 10 4.16689C12.5837 4.16689 14.6704 5.64486 16.1629 7.23684C16.9015 8.02473 17.4705 8.8158 17.8547 9.41066C18.0042 9.64226 18.125 9.84284 18.216 10.0002C18.125 10.1576 18.0042 10.3582 17.8547 10.5898Z"
        fill="#263052" />
</svg>
