<svg width="11" height="11" viewBox="0 0 11 11" fill="none" xmlns="http://www.w3.org/2000/svg">
    <path
        d="M6.32013 1.36037C6.32013 1.23307 6.26956 1.11098 6.17954 1.02096C6.08952 0.930942 5.96743 0.880371 5.84013 0.880371C5.71282 0.880371 5.59073 0.930942 5.50072 1.02096C5.4107 1.11098 5.36013 1.23307 5.36013 1.36037V5.36037H1.36013C1.23282 5.36037 1.11073 5.42823 1.02072 5.51824C0.930698 5.60826 0.880127 5.79299 0.880127 5.92029C0.880127 6.0476 0.930698 6.16969 1.02072 6.2597C1.11073 6.34972 1.23282 6.40029 1.36013 6.40029H5.36013V10.3204C5.36013 10.4477 5.4107 10.5698 5.50072 10.6598C5.59073 10.7498 5.71282 10.8004 5.84013 10.8004C5.96743 10.8004 6.08952 10.7498 6.17954 10.6598C6.26956 10.5698 6.32013 10.4477 6.32013 10.3204V6.40029H10.3201C10.4474 6.40029 10.5695 6.34972 10.6595 6.2597C10.7496 6.16969 10.8001 6.0476 10.8001 5.92029C10.8001 5.79299 10.7496 5.6134 10.6595 5.52338C10.5695 5.43337 10.4474 5.36037 10.3201 5.36037H6.32013V1.36037Z"
        fill="white" />
</svg>
